<svg width="40" height="40" viewBox="0 0 40 40" fill="none" xmlns="http://www.w3.org/2000/svg">
<path d="M6 35.3333V2H22.6667L32.6667 12V35.3333H6ZM21 13.6667H29.3333L21 5.33333V13.6667Z" fill="#DDDDDD"/>
<rect x="18" y="18" width="22" height="22" rx="11" fill="#6264A7"/>
<path d="M25.6402 33.8881C24.7133 33.8881 23.9214 33.5673 23.2645 32.9256C22.6075 32.284 22.2791 31.4997 22.2791 30.5729C22.2791 29.7784 22.5184 29.0705 22.9971 28.4492C23.4758 27.8279 24.1022 27.4307 24.8763 27.2576C25.1309 26.3205 25.6402 25.5617 26.4041 24.9812C27.1679 24.4006 28.0337 24.1104 29.0013 24.1104C30.1929 24.1104 31.2038 24.5254 32.0339 25.3555C32.864 26.1856 33.2791 27.1965 33.2791 28.3881C33.9818 28.4696 34.5649 28.7726 35.0284 29.2972C35.4918 29.8217 35.7235 30.4354 35.7235 31.1381C35.7235 31.902 35.4561 32.5513 34.9214 33.086C34.3867 33.6208 33.7374 33.8881 32.9735 33.8881H29.6124C29.2763 33.8881 28.9885 33.7685 28.7492 33.5291C28.5098 33.2897 28.3902 33.002 28.3902 32.6659V29.5187L27.4124 30.4659L26.5568 29.6104L29.0013 27.1659L31.4457 29.6104L30.5902 30.4659L29.6124 29.5187V32.6659H32.9735C33.4013 32.6659 33.7628 32.5182 34.0582 32.2229C34.3536 31.9275 34.5013 31.5659 34.5013 31.1381C34.5013 30.7104 34.3536 30.3488 34.0582 30.0534C33.7628 29.758 33.4013 29.6104 32.9735 29.6104H32.0568V28.3881C32.0568 27.5428 31.7589 26.8222 31.1631 26.2263C30.5672 25.6305 29.8466 25.3326 29.0013 25.3326C28.1559 25.3326 27.4353 25.6305 26.8395 26.2263C26.2436 26.8222 25.9457 27.5428 25.9457 28.3881H25.6402C25.0494 28.3881 24.5453 28.5969 24.1277 29.0145C23.7101 29.4321 23.5013 29.9363 23.5013 30.527C23.5013 31.1178 23.7101 31.6219 24.1277 32.0395C24.5453 32.4571 25.0494 32.6659 25.6402 32.6659H27.1679V33.8881H25.6402Z" fill="white"/>
</svg>
